<?xml version="1.0" encoding="UTF-8" standalone="no"?>
<svg
   xmlns:dc="http://purl.org/dc/elements/1.1/"
   xmlns:cc="http://creativecommons.org/ns#"
   xmlns:rdf="http://www.w3.org/1999/02/22-rdf-syntax-ns#"
   xmlns:svg="http://www.w3.org/2000/svg"
   xmlns="http://www.w3.org/2000/svg"
   xmlns:sodipodi="http://sodipodi.sourceforge.net/DTD/sodipodi-0.dtd"
   xmlns:inkscape="http://www.inkscape.org/namespaces/inkscape"
   width="15.133385cm"
   height="8.7662287cm"
   viewBox="232 5 189.16731 207.20177"
   id="svg2"
   version="1.1"
   inkscape:version="0.91 r13725"
   sodipodi:docname="Recurrent-Layer_Neural_Network-Vector-Blank.svg">
  <metadata
     id="metadata67">
    <rdf:RDF>
      <cc:Work
         rdf:about="">
        <dc:format>image/svg+xml</dc:format>
        <dc:type
           rdf:resource="http://purl.org/dc/dcmitype/StillImage" />
        <dc:title></dc:title>
      </cc:Work>
    </rdf:RDF>
  </metadata>
  <defs
     id="defs65" />
  <sodipodi:namedview
     pagecolor="#ffffff"
     bordercolor="#666666"
     borderopacity="1"
     objecttolerance="10"
     gridtolerance="10"
     guidetolerance="10"
     inkscape:pageopacity="0"
     inkscape:pageshadow="2"
     inkscape:window-width="2498"
     inkscape:window-height="1418"
     id="namedview63"
     showgrid="false"
     fit-margin-top="0"
     fit-margin-left="0"
     fit-margin-right="0"
     fit-margin-bottom="0"
     inkscape:zoom="1.2109899"
     inkscape:cx="768.79351"
     inkscape:cy="252.69582"
     inkscape:window-x="1432"
     inkscape:window-y="724"
     inkscape:window-maximized="1"
     inkscape:current-layer="g4" />
  <g
     id="g4"
     transform="translate(-5.5674202,-71.399611)">
    <circle
       style="fill:#990000;stroke:#000000;stroke-width:4;fill-opacity:1"
       cx="355"
       cy="135"
       id="ellipse22"
       r="35" />
    <line
       style="fill:none;fill-opacity:0;stroke:#000000;stroke-width:2"
       x1="310.26401"
       y1="134.97701"
       x2="154.33701"
       y2="134.60001"
       id="line24" />
    <polygon
       style="fill:#000000;stroke:#000000;stroke-width:2"
       points="307.776,129.97 317.764,134.995 307.752,139.97 310.264,134.977 "
       id="polygon26"
       transform="translate(-2.4788135,0)" />
    <path
       style="fill:#000000;stroke:#000000;stroke-width:2"
       d="m 154.337,134.6 c 0.009,-4 4.019,-7.99 8.019,-7.98 4,0.009 7.99,4.019 7.981,8.019 -0.01,4 -4.02,7.99 -8.02,7.98 -4,-0.009 -7.99,-4.019 -7.98,-8.019"
       id="path28"
       inkscape:connector-curvature="0" />
    <line
       style="fill:none;fill-opacity:0;stroke:#000000;stroke-width:2"
       x1="313.79599"
       y1="152.41299"
       x2="154.302"
       y2="224.686"
       id="line30" />
    <polygon
       style="fill:#000000;stroke:#000000;stroke-width:2"
       points="309.455,148.89 320.627,149.317 313.583,157.999 313.796,152.413 "
       id="polygon32"
       transform="translate(-2.2033898,0.27542372)" />
    <circle
       style="fill:#990000;stroke:#000000;stroke-width:4;fill-opacity:1"
       cx="355"
       cy="225"
       id="ellipse38"
       r="35" />
    <line
       style="fill:none;fill-opacity:0;stroke:#000000;stroke-width:2"
       x1="310.26401"
       y1="224.98199"
       x2="154.302"
       y2="224.686"
       id="line40" />
    <polygon
       style="fill:#000000;stroke:#000000;stroke-width:2"
       points="317.764,224.996 307.754,229.977 310.264,224.982 307.773,219.977 "
       id="polygon42"
       transform="translate(-2.6682828,0)" />
    <path
       style="fill:#000000;stroke:#000000;stroke-width:2"
       d="m 154.302,224.686 c 0.008,-4 4.015,-7.992 8.015,-7.985 4,0.008 7.993,4.015 7.985,8.015 -0.008,4 -4.015,7.993 -8.015,7.985 -4,-0.007 -7.993,-4.015 -7.985,-8.015 z"
       id="path44"
       inkscape:connector-curvature="0" />
    <line
       style="fill:none;fill-opacity:0;stroke:#000000;stroke-width:2"
       x1="313.81"
       y1="207.556"
       x2="154.33701"
       y2="134.60001"
       id="line46" />
    <polygon
       style="fill:#000000;stroke:#000000;stroke-width:2"
       points="313.81,207.556 313.617,201.969 320.631,210.676 309.457,211.062 "
       id="polygon48"
       transform="translate(-2.1604125,-0.78329396)" />
    <line
       style="fill:none;fill-opacity:0;stroke:#000000;stroke-width:2"
       x1="500"
       y1="135"
       x2="390"
       y2="135"
       id="line56" />
    <line
       style="fill:none;fill-opacity:0;stroke:#000000;stroke-width:2"
       x1="500"
       y1="225"
       x2="390"
       y2="225"
       id="line58" />
    <polygon
       style="fill:#000000;stroke:#000000;stroke-width:2"
       id="cen"
       points="501.264,134.977 498.776,129.97 508.764,134.995 498.752,139.97 " />
    <polygon
       style="fill:#000000;stroke:#000000;stroke-width:2"
       id="bot"
       points="501.264,224.982 498.773,219.977 508.764,224.996 498.754,229.977 " />
    <g
       id="g4220"
       transform="translate(-2.348022,3.0950567)">
      <polygon
         transform="translate(-6.0593219,-85.105929)"
         id="polygon52"
         points="324.406,188.397 328.578,198.77 317.776,195.884 322.963,193.798 "
         style="fill:#000000;stroke:#000000;stroke-width:2" />
      <path
         sodipodi:nodetypes="csc"
         inkscape:connector-curvature="0"
         id="path4218"
         d="m 394.01342,129.07433 c 6.73186,0.19171 15.82127,-0.45882 12.18401,-7.77539 C 374.61778,57.774578 284.22548,63.954969 315.59977,108.2839"
         style="fill:none;fill-rule:evenodd;stroke:#000000;stroke-width:2.00121212;stroke-linecap:butt;stroke-linejoin:miter;stroke-miterlimit:4;stroke-dasharray:none;stroke-opacity:1" />
    </g>
    <g
       transform="matrix(1,0,0,-1,-2.4955208,356.90593)"
       id="g4241">
      <polygon
         style="fill:#000000;stroke:#000000;stroke-width:2"
         points="324.406,188.397 328.578,198.77 317.776,195.884 322.963,193.798 "
         id="polygon4243"
         transform="translate(-6.0593219,-85.105929)" />
      <path
         style="fill:none;fill-rule:evenodd;stroke:#000000;stroke-width:2.00121212;stroke-linecap:butt;stroke-linejoin:miter;stroke-miterlimit:4;stroke-dasharray:none;stroke-opacity:1"
         d="m 394.01342,129.07433 c 6.73186,0.19171 15.82127,-0.45882 12.18401,-7.77539 C 374.61778,57.774578 284.22548,63.954969 315.59977,108.2839"
         id="path4245"
         inkscape:connector-curvature="0"
         sodipodi:nodetypes="csc" />
    </g>
  </g>
</svg>
