<svg xmlns:dc="http://purl.org/dc/elements/1.1/" xmlns:cc="http://creativecommons.org/ns#" xmlns:rdf="http://www.w3.org/1999/02/22-rdf-syntax-ns#" xmlns:svg="http://www.w3.org/2000/svg" xmlns="http://www.w3.org/2000/svg" xmlns:sodipodi="http://sodipodi.sourceforge.net/DTD/sodipodi-0.dtd" xmlns:inkscape="http://www.inkscape.org/namespaces/inkscape" viewBox="232 5 189.16731 253.99998" id="svg2" version="1.1" inkscape:version="0.91 r13725" sodipodi:docname="Single-Layer_Neural_Network-Vector-Blank - Copy.svg" viewport="0 0 1280px 853px">
  <metadata id="metadata67">
    <rdf:RDF>
      <cc:Work rdf:about="">
        <dc:format>image/svg+xml</dc:format>
        <dc:type rdf:resource="http://purl.org/dc/dcmitype/StillImage"/>
        <dc:title/>
      </cc:Work>
    </rdf:RDF>
  </metadata>
  <defs id="defs65"/>
  <sodipodi:namedview pagecolor="#ffffff" bordercolor="#666666" borderopacity="1" objecttolerance="10" gridtolerance="10" guidetolerance="10" inkscape:pageopacity="0" inkscape:pageshadow="2" inkscape:window-width="2498" inkscape:window-height="1418" id="namedview63" showgrid="false" fit-margin-top="0" fit-margin-left="0" fit-margin-right="0" fit-margin-bottom="0" inkscape:zoom="0.60549495" inkscape:cx="275.11849" inkscape:cy="190.38461" inkscape:window-x="1432" inkscape:window-y="724" inkscape:window-maximized="1" inkscape:current-layer="g4"/>
  <g id="g4" transform="translate(-5.5674202,-3)">
    <circle style="fill:#990000;fill-opacity:1;stroke:#000000;stroke-width:4" cx="355" cy="45" id="ellipse6" r="35"/>
    <line style="fill:none;fill-opacity:0;stroke:#000000;stroke-width:2" x1="310.26401" y1="44.9715" x2="154.371" y2="44.5144" id="line8"/>
    <polygon style="fill:#000000;stroke:#000000;stroke-width:2" points="310.264,44.9715 307.779,39.9641 317.764,44.9934 307.749,49.9641 " id="polygon10"/>
    <path style="fill:#000000;stroke:#000000;stroke-width:2" d="m 154.371,44.5144 c 0.012,-4 4.024,-7.9882 8.024,-7.9765 4,0.0117 7.988,4.0234 7.976,8.0234 -0.012,4 -4.023,7.9882 -8.023,7.9765 -4,-0.0117 -7.989,-4.0234 -7.977,-8.0234 z" id="path12" inkscape:connector-curvature="0"/>
    <line style="fill:none;fill-opacity:0;stroke:#000000;stroke-width:2" x1="313.79501" y1="62.409401" x2="154.33701" y2="134.60001" id="line14"/>
    <polygon style="fill:#000000;stroke:#000000;stroke-width:2" points="313.795,62.4094 309.455,58.8856 320.627,59.3162 313.579,67.9955 " id="polygon16"/>
    <line style="fill:none;fill-opacity:0;stroke:#000000;stroke-width:2" x1="322.94501" y1="76.183098" x2="154.302" y2="224.686" id="line18"/>
    <polygon style="fill:#000000;stroke:#000000;stroke-width:2" points="322.945,76.1831 317.764,74.0828 328.574,71.2266 324.373,81.5878 " id="polygon20"/>
    <circle style="fill:#990000;fill-opacity:1;stroke:#000000;stroke-width:4" cx="355" cy="135" id="ellipse22" r="35"/>
    <line style="fill:none;fill-opacity:0;stroke:#000000;stroke-width:2" x1="310.26401" y1="134.97701" x2="154.33701" y2="134.60001" id="line24"/>
    <polygon style="fill:#000000;stroke:#000000;stroke-width:2" points="310.264,134.977 307.776,129.97 317.764,134.995 307.752,139.97 " id="polygon26"/>
    <path style="fill:#000000;stroke:#000000;stroke-width:2" d="m 154.337,134.6 c 0.009,-4 4.019,-7.99 8.019,-7.98 4,0.009 7.99,4.019 7.981,8.019 -0.01,4 -4.02,7.99 -8.02,7.98 -4,-0.009 -7.99,-4.019 -7.98,-8.019" id="path28" inkscape:connector-curvature="0"/>
    <line style="fill:none;fill-opacity:0;stroke:#000000;stroke-width:2" x1="313.79599" y1="152.41299" x2="154.302" y2="224.686" id="line30"/>
    <polygon style="fill:#000000;stroke:#000000;stroke-width:2" points="313.796,152.413 309.455,148.89 320.627,149.317 313.583,157.999 " id="polygon32"/>
    <line style="fill:none;fill-opacity:0;stroke:#000000;stroke-width:2" x1="313.81201" y1="117.551" x2="154.371" y2="44.5144" id="line34"/>
    <polygon style="fill:#000000;stroke:#000000;stroke-width:2" points="313.812,117.551 313.622,111.964 320.631,120.675 309.457,121.056 " id="polygon36"/>
    <circle style="fill:#990000;fill-opacity:1;stroke:#000000;stroke-width:4" cx="355" cy="225" id="ellipse38" r="35"/>
    <line style="fill:none;fill-opacity:0;stroke:#000000;stroke-width:2" x1="310.26401" y1="224.98199" x2="154.302" y2="224.686" id="line40"/>
    <polygon style="fill:#000000;stroke:#000000;stroke-width:2" points="310.264,224.982 307.773,219.977 317.764,224.996 307.754,229.977 " id="polygon42"/>
    <path style="fill:#000000;stroke:#000000;stroke-width:2" d="m 154.302,224.686 c 0.008,-4 4.015,-7.992 8.015,-7.985 4,0.008 7.993,4.015 7.985,8.015 -0.008,4 -4.015,7.993 -8.015,7.985 -4,-0.007 -7.993,-4.015 -7.985,-8.015 z" id="path44" inkscape:connector-curvature="0"/>
    <line style="fill:none;fill-opacity:0;stroke:#000000;stroke-width:2" x1="313.81" y1="207.556" x2="154.33701" y2="134.60001" id="line46"/>
    <polygon style="fill:#000000;stroke:#000000;stroke-width:2" points="313.81,207.556 313.617,201.969 320.631,210.676 309.457,211.062 " id="polygon48"/>
    <line style="fill:none;fill-opacity:0;stroke:#000000;stroke-width:2" x1="322.96301" y1="193.798" x2="154.371" y2="44.5144" id="line50"/>
    <polygon style="fill:#000000;stroke:#000000;stroke-width:2" points="322.963,193.798 324.406,188.397 328.578,198.77 317.776,195.884 " id="polygon52"/>
    <line style="fill:none;fill-opacity:0;stroke:#000000;stroke-width:2" x1="500" y1="45" x2="390" y2="45" id="line54"/>
    <line style="fill:none;fill-opacity:0;stroke:#000000;stroke-width:2" x1="500" y1="135" x2="390" y2="135" id="line56"/>
    <line style="fill:none;fill-opacity:0;stroke:#000000;stroke-width:2" x1="500" y1="225" x2="390" y2="225" id="line58"/>
    <polygon style="fill:#000000;stroke:#000000;stroke-width:2" id="top" points="501.264,44.9715 498.779,39.9641 508.764,44.9934 498.749,49.9641 "/>
    <polygon style="fill:#000000;stroke:#000000;stroke-width:2" id="cen" points="501.264,134.977 498.776,129.97 508.764,134.995 498.752,139.97 "/>
    <polygon style="fill:#000000;stroke:#000000;stroke-width:2" id="bot" points="501.264,224.982 498.773,219.977 508.764,224.996 498.754,229.977 "/>
  </g>
</svg>