<svg xmlns:dc="http://purl.org/dc/elements/1.1/" xmlns:cc="http://creativecommons.org/ns#" xmlns:rdf="http://www.w3.org/1999/02/22-rdf-syntax-ns#" xmlns:svg="http://www.w3.org/2000/svg" xmlns="http://www.w3.org/2000/svg" xmlns:sodipodi="http://sodipodi.sourceforge.net/DTD/sodipodi-0.dtd" xmlns:inkscape="http://www.inkscape.org/namespaces/inkscape" viewBox="152 7 743.16924 248.22766" id="svg2" version="1.1" inkscape:version="0.91 r13725" sodipodi:docname="Deep-Multi-Layer_Neural_Network-Vector.svg" viewport="0 0 1600px 547px">
  <metadata id="metadata126">
    <rdf:RDF>
      <cc:Work rdf:about="">
        <dc:format>image/svg+xml</dc:format>
        <dc:type rdf:resource="http://purl.org/dc/dcmitype/StillImage"/>
        <dc:title/>
        <cc:license rdf:resource="http://creativecommons.org/publicdomain/zero/1.0/"/>
      </cc:Work>
      <cc:License rdf:about="http://creativecommons.org/publicdomain/zero/1.0/">
        <cc:permits rdf:resource="http://creativecommons.org/ns#Reproduction"/>
        <cc:permits rdf:resource="http://creativecommons.org/ns#Distribution"/>
        <cc:permits rdf:resource="http://creativecommons.org/ns#DerivativeWorks"/>
      </cc:License>
    </rdf:RDF>
  </metadata>
  <defs id="defs124"/>
  <sodipodi:namedview pagecolor="#ffffff" bordercolor="#666666" borderopacity="1" objecttolerance="10" gridtolerance="10" guidetolerance="10" inkscape:pageopacity="0" inkscape:pageshadow="2" inkscape:window-width="2498" inkscape:window-height="1418" id="namedview122" showgrid="false" fit-margin-top="0" fit-margin-left="0" fit-margin-right="0" fit-margin-bottom="0" inkscape:zoom="0.73168724" inkscape:cx="614.37154" inkscape:cy="-76.830156" inkscape:window-x="1432" inkscape:window-y="724" inkscape:window-maximized="1" inkscape:current-layer="g4"/>
  <g id="g4" transform="translate(217.16312,-3.9671464)">
    <line style="fill:none;fill-opacity:0;stroke:#000000;stroke-width:1.99999988" x1="314.33109" y1="207.35072" x2="154.89006" y2="134.31412" id="line40-0"/>
    <circle style="fill:#990000;fill-opacity:1" cx="355" cy="45" id="ellipse6" r="35"/>
    <circle style="fill:none;fill-opacity:0;stroke:#000000;stroke-width:4" cx="355" cy="45" id="ellipse8" r="35"/>
    <line style="fill:none;fill-opacity:0;stroke:#000000;stroke-width:2" x1="310.26401" y1="44.9715" x2="154.371" y2="44.5144" id="line10"/>
    <polygon style="fill:#000000;stroke:#000000;stroke-width:2" points="310.264,44.9715 307.779,39.9641 317.764,44.9934 307.749,49.9641 " id="polygon12"/>
    <line style="fill:none;fill-opacity:0;stroke:#000000;stroke-width:2" x1="313.79501" y1="62.409401" x2="154.33701" y2="134.60001" id="line16"/>
    <polygon style="fill:#000000;stroke:#000000;stroke-width:2" points="313.795,62.4094 309.455,58.8856 320.627,59.3162 313.579,67.9955 " id="polygon18"/>
    <line style="fill:none;fill-opacity:0;stroke:#000000;stroke-width:2" x1="322.94501" y1="76.183098" x2="154.302" y2="224.686" id="line20"/>
    <polygon style="fill:#000000;stroke:#000000;stroke-width:2" points="322.945,76.1831 317.764,74.0828 328.574,71.2266 324.373,81.5878 " id="polygon22"/>
    <circle style="fill:#990000;fill-opacity:1;stroke:#000000;stroke-width:4" cx="355" cy="135" id="ellipse24" r="35"/>
    <line style="fill:none;fill-opacity:0;stroke:#000000;stroke-width:2" x1="310.26401" y1="134.97701" x2="154.33701" y2="134.60001" id="line26"/>
    <polygon style="fill:#000000" points="310.264,134.977 307.776,129.97 317.764,134.995 307.752,139.97 " id="polygon28"/>
    <polygon style="fill:none;fill-opacity:0;stroke:#000000;stroke-width:2" points="310.264,134.977 307.776,129.97 317.764,134.995 307.752,139.97 " id="polygon30"/>
    <line style="fill:none;fill-opacity:0;stroke:#000000;stroke-width:2" x1="313.79599" y1="152.41299" x2="154.302" y2="224.686" id="line36"/>
    <polygon style="fill:#000000;stroke:#000000;stroke-width:2" points="313.796,152.413 309.455,148.89 320.627,149.317 313.583,157.999 " id="polygon38"/>
    <line style="fill:none;fill-opacity:0;stroke:#000000;stroke-width:2" x1="313.81201" y1="117.551" x2="154.371" y2="44.5144" id="line40"/>
    <polygon style="fill:#000000;stroke:#000000;stroke-width:2" points="313.812,117.551 313.622,111.964 320.631,120.675 309.457,121.056 " id="polygon42"/>
    <circle style="fill:#990000;fill-opacity:1;stroke:#000000;stroke-width:4" cx="355" cy="225" id="ellipse44" r="35"/>
    <line style="fill:none;fill-opacity:0;stroke:#000000;stroke-width:2" x1="310.26401" y1="224.98199" x2="154.302" y2="224.686" id="line46"/>
    <polygon style="fill:#000000;stroke:#000000;stroke-width:2" points="310.264,224.982 307.773,219.977 317.764,224.996 307.754,229.977 " id="polygon48"/>
    <polygon style="fill:#000000;stroke:#000000;stroke-width:2" points="313.81,207.556 313.617,201.969 320.631,210.676 309.457,211.062 " id="polygon54"/>
    <line style="fill:none;fill-opacity:0;stroke:#000000;stroke-width:2" x1="322.96301" y1="193.798" x2="154.371" y2="44.5144" id="line56"/>
    <polygon style="fill:#000000;stroke:#000000;stroke-width:2" points="322.963,193.798 324.406,188.397 328.578,198.77 317.776,195.884 " id="polygon58"/>
    <circle style="fill:#990000;fill-opacity:1;stroke:#000000;stroke-width:4" cx="542.612" cy="90.185402" id="ellipse60" r="35"/>
    <line style="fill:none;fill-opacity:0;stroke:#000000;stroke-width:2" x1="498.52399" y1="86.693703" x2="390" y2="45" id="line62"/>
    <polygon style="fill:#000000;stroke:#000000;stroke-width:2" points="498.524,86.6937 497.983,81.1297 505.525,89.3835 494.397,90.4645 " id="polygon64"/>
    <line style="fill:none;fill-opacity:0;stroke:#000000;stroke-width:2" x1="500.85599" y1="106.04" x2="390" y2="135" id="line66"/>
    <polygon style="fill:#000000;stroke:#000000;stroke-width:2" points="500.856,106.04 497.173,101.834 508.113,104.145 499.701,111.51 " id="polygon68"/>
    <line style="fill:none;fill-opacity:0;stroke:#000000;stroke-width:2" x1="510.48499" y1="121.286" x2="390" y2="225" id="line70"/>
    <polygon style="fill:#000000;stroke:#000000;stroke-width:2" points="510.485,121.286 505.329,119.127 516.169,116.393 511.852,126.706 " id="polygon72"/>
    <circle style="fill:#990000;fill-opacity:1;stroke:#000000;stroke-width:4" cx="542.612" cy="180.185" id="ellipse74" r="35"/>
    <line style="fill:none;fill-opacity:0;stroke:#000000;stroke-width:2" x1="498.51401" y1="183.65199" x2="390" y2="225" id="line76"/>
    <polygon style="fill:#000000;stroke:#000000;stroke-width:2" points="498.514,183.652 494.398,179.87 505.522,180.982 497.958,189.215 " id="polygon78"/>
    <line style="fill:none;fill-opacity:0;stroke:#000000;stroke-width:2" x1="500.86301" y1="164.304" x2="390" y2="135" id="line80"/>
    <polygon style="fill:#000000;stroke:#000000;stroke-width:2" points="500.863,164.304 499.724,158.831 508.114,166.22 497.168,168.499 " id="polygon82"/>
    <line style="fill:none;fill-opacity:0;stroke:#000000;stroke-width:2" x1="510.496" y1="149.073" x2="390" y2="45" id="line84"/>
    <polygon style="fill:#000000;stroke:#000000;stroke-width:2" points="510.496,149.073 511.872,143.655 516.172,153.975 505.336,151.223 " id="polygon86"/>
    <line style="fill:none;fill-opacity:0;stroke:#000000;stroke-width:2" x1="668.25403" y1="90.204697" x2="577.612" y2="90.185402" id="line88"/>
    <polygon style="fill:#000000;stroke:#000000;stroke-width:2" points="668.254,90.2047 665.755,85.2042 675.754,90.2063 665.753,95.2042 " id="polygon90"/>
    <line style="fill:none;fill-opacity:0;stroke:#000000;stroke-width:2" x1="668.27002" y1="180.189" x2="577.612" y2="180.185" id="line92"/>
    <polygon style="fill:#000000;stroke:#000000;stroke-width:2" points="668.27,180.189 665.77,175.189 675.77,180.19 665.77,185.189 " id="polygon94"/>
    <circle style="fill:#990000;fill-opacity:1" cx="136.53412" cy="45.165825" id="ellipse6-0" r="35"/>
    <circle style="fill:none;fill-opacity:0;stroke:#000000;stroke-width:3.99999976" cx="136.53412" cy="45.165825" id="ellipse8-3" r="35"/>
    <line style="fill:none;fill-opacity:0;stroke:#000000;stroke-width:1.99999988" x1="91.798157" y1="45.137321" x2="-64.094406" y2="44.680222" id="line10-6"/>
    <polygon transform="translate(-218.46499,0.16581987)" style="fill:#000000;stroke:#000000;stroke-width:2" points="317.764,44.9934 307.749,49.9641 310.264,44.9715 307.779,39.9641 " id="polygon12-3"/>
    <path style="fill:#000000;stroke:#000000;stroke-width:1.99999988" d="m -64.094084,44.680221 c 0.012,-3.999999 4.024006,-7.9882 8.024014,-7.9765 4.000006,0.0117 7.988014,4.023401 7.976014,8.0234 -0.012,4.000001 -4.023008,7.9882 -8.023014,7.9765 -4.000008,-0.0117 -7.989014,-4.0234 -7.977014,-8.0234 z" id="path14-9" inkscape:connector-curvature="0"/>
    <line style="fill:none;fill-opacity:0;stroke:#000000;stroke-width:1.99999988" x1="95.329178" y1="62.575222" x2="-64.128395" y2="134.76584" id="line16-6"/>
    <polygon transform="translate(-218.46499,0.16581987)" style="fill:#000000;stroke:#000000;stroke-width:2" points="320.627,59.3162 313.579,67.9955 313.795,62.4094 309.455,58.8856 " id="polygon18-1"/>
    <line style="fill:none;fill-opacity:0;stroke:#000000;stroke-width:1.99999988" x1="104.47916" y1="76.348915" x2="-64.163406" y2="224.85184" id="line20-7"/>
    <polygon transform="translate(-218.46499,0.16581987)" style="fill:#000000;stroke:#000000;stroke-width:2" points="328.574,71.2266 324.373,81.5878 322.945,76.1831 317.764,74.0828 " id="polygon22-2"/>
    <circle style="fill:#990000;fill-opacity:1;stroke:#000000;stroke-width:3.99999976" cx="136.53412" cy="135.16583" id="ellipse24-1" r="35"/>
    <line style="fill:none;fill-opacity:0;stroke:#000000;stroke-width:1.99999988" x1="91.798157" y1="135.14284" x2="-64.128395" y2="134.76584" id="line26-9"/>
    <polygon transform="translate(-218.46499,0.16581987)" style="fill:#000000" points="317.764,134.995 307.752,139.97 310.264,134.977 307.776,129.97 " id="polygon28-1"/>
    <polygon transform="translate(-218.46499,0.16581987)" style="fill:none;fill-opacity:0;stroke:#000000;stroke-width:2" points="317.764,134.995 307.752,139.97 310.264,134.977 307.776,129.97 " id="polygon30-4"/>
    <path style="fill:#000000" d="m -64.128084,134.76583 c 0.009,-4 4.019006,-7.99 8.019014,-7.98 4.000006,0.009 7.990014,4.019 7.981014,8.01899 -0.01,4.00001 -4.020008,7.99 -8.020014,7.98001 -4.000008,-0.009 -7.990014,-4.01901 -7.980014,-8.019 z" id="path32-2" inkscape:connector-curvature="0"/>
    <path style="fill:none;fill-opacity:0;stroke:#000000;stroke-width:1.99999988" d="m -64.128084,134.76583 c 0.009,-4 4.019006,-7.99 8.019014,-7.98 4.000006,0.009 7.990014,4.019 7.981014,8.01899 -0.01,4.00001 -4.020008,7.99 -8.020014,7.98001 -4.000008,-0.009 -7.990014,-4.01901 -7.980014,-8.019" id="path34-2" inkscape:connector-curvature="0"/>
    <line style="fill:none;fill-opacity:0;stroke:#000000;stroke-width:1.99999988" x1="95.330147" y1="152.57881" x2="-64.163406" y2="224.85184" id="line36-2"/>
    <polygon transform="translate(-218.46499,0.16581987)" style="fill:#000000;stroke:#000000;stroke-width:2" points="320.627,149.317 313.583,157.999 313.796,152.413 309.455,148.89 " id="polygon38-8"/>
    <line style="fill:none;fill-opacity:0;stroke:#000000;stroke-width:1.99999988" x1="95.346161" y1="117.71682" x2="-64.094406" y2="44.680222" id="line40-7"/>
    <polygon transform="translate(-218.46499,0.16581987)" style="fill:#000000;stroke:#000000;stroke-width:2" points="320.631,120.675 309.457,121.056 313.812,117.551 313.622,111.964 " id="polygon42-7"/>
    <circle style="fill:#990000;fill-opacity:1;stroke:#000000;stroke-width:3.99999976" cx="136.53412" cy="225.16583" id="ellipse44-9" r="35"/>
    <line style="fill:none;fill-opacity:0;stroke:#000000;stroke-width:1.99999988" x1="91.798157" y1="225.14783" x2="-64.163406" y2="224.85184" id="line46-0"/>
    <polygon transform="translate(-218.46499,0.16581987)" style="fill:#000000;stroke:#000000;stroke-width:2" points="317.764,224.996 307.754,229.977 310.264,224.982 307.773,219.977 " id="polygon48-8"/>
    <path style="fill:#000000;stroke:#000000;stroke-width:1.99999988" d="m -64.163086,224.85183 c 0.008,-4.00001 4.015008,-7.992 8.015016,-7.985 4.000006,0.008 7.993014,4.01499 7.985014,8.01499 -0.008,4.00001 -4.015008,7.99301 -8.015014,7.985 -4.000008,-0.007 -7.993016,-4.01499 -7.985016,-8.01499 z" id="path50-1" inkscape:connector-curvature="0"/>
    <line style="fill:none;fill-opacity:0;stroke:#000000;stroke-width:1.99999988" x1="95.344177" y1="207.72182" x2="-64.128395" y2="134.76584" id="line52-5"/>
    <polygon transform="translate(-218.46499,0.16581987)" style="fill:#000000;stroke:#000000;stroke-width:2" points="320.631,210.676 309.457,211.062 313.81,207.556 313.617,201.969 " id="polygon54-6"/>
    <line style="fill:none;fill-opacity:0;stroke:#000000;stroke-width:1.99999988" x1="104.49716" y1="193.96384" x2="-64.094406" y2="44.680222" id="line56-4"/>
    <polygon transform="translate(-218.46499,0.16581987)" style="fill:#000000;stroke:#000000;stroke-width:2" points="328.578,198.77 317.776,195.884 322.963,193.798 324.406,188.397 " id="polygon58-4"/>
  </g>
</svg>